PathFileType	4	(X/Y/Z)	/home/abdul/Desktop/myosuite/custom_workspace/IK/output/S1_12_1.trc
DataRate	CameraRate	NumFrames	NumMarkers	Units	OrigDataRate	OrigDataStartFrame	OrigNumFrames
200.0	200.0	49	3	mm	200.0	3073	3511
Frame#	Time	V_Shoulder			V_Elbow			V_Wrist		
		X1	Y1	Z1	X2	Y2	Z2	X3	Y3	Z3

3073	15.36	-155.46449455361054	552.8781433825719	396.10725797067045	-327.7948367727603	443.29096568211855	76.77246272816211	-215.5448498714535	218.99703473169467	165.2028937969144
3074	15.365	-155.52695959581004	552.6200173130297	395.9898637019988	-327.9723652128021	443.8756751853542	76.30050220077794	-215.73839284225727	219.26956146497105	163.85797972727858
3075	15.37	-155.59083932127666	552.3724161402641	395.87417258563295	-328.1508144446329	444.45719299435274	75.84052832446807	-215.92032690515452	219.55238772519408	162.52767648659474
3076	15.375	-155.6560712071607	552.1353507227224	395.7602857991555	-328.3303962249029	445.03549729655776	75.39277735821534	-216.09150368663842	219.84519076992797	161.2127040526113
3077	15.38	-155.722594919155	551.9088232070189	395.64829961344384	-328.5113220306494	445.61058147989	74.95746465890097	-216.25279877049405	220.14763743187788	159.91375487672133
3078	15.385	-155.79035253364452	551.6928271266785	395.5383050623083	-328.6938020725918	446.182454107504	74.53478365449914	-216.405108207792	220.45938556488642	158.63149160376025
3079	15.39	-155.85928874951725	551.4873475187275	395.43038763173917	-328.8780443348734	446.7511388322175	74.12490490993376	-216.54934502284272	220.78008549101747	157.36654494356384
3080	15.395	-155.9293510888108	551.2923610575189	395.32462697015853	-329.0642536440082	447.31667425076887	73.72797528856648	-216.68643572746555	221.10938144161892	156.11951170090208
3081	15.4	-156.0004900854232	551.1078362051427	395.22109662095346	-329.2526307695829	447.8791136983344	73.3441172118098	-216.8173168556376	221.44691298546059	154.89095296959388
3082	15.405	-156.07265946117613	550.9337333777322	395.1198637784453	-329.4433715590581	448.4385249840084	72.97342801888553	-216.94293153026376	221.79231643727817	153.68139249577524
3083	15.41	-156.14581628857715	550.7700051269475	395.0209890683227	-329.63666610881364	448.9949900682121	72.615979428277	-217.06422607344635	222.14522624031642	152.4913152144569
3084	15.415	-156.21992113969247	550.61659633588	394.92452635343443	-329.8326979733879	449.54860468325757	72.27181710195856	-217.1821466712402	222.50527631675436	151.32116596265809
3085	15.42	-156.29493822060454	550.473444428599	394.83052256570346	-330.0316434146725	450.09947789854107	71.94096031302641	-217.29763610345182	222.87210138020703	150.17134837155592
3086	15.425	-156.37083549099495	550.3404795925289	394.739017564789	-330.2336706926417	450.6477316320804	71.62340171690438	-217.4116305485883	223.24533820483208	149.0422239392432
3087	15.43	-156.44758476846144	550.2176250128276	394.6500440239848	-330.43893939901767	451.19350011033964	71.3191072258581	-217.52505647358072	223.62462684592555	147.9341112848475
3088	15.435	-156.52516181724525	550.1047971179063	394.56362734370373	-330.6475998351044	451.7369292785045	71.02801598612245	-217.63882761740462	224.00961180725943	146.84728558393647
3089	15.44	-156.60354642111386	550.0019058352203	394.4797855927616	-330.8597924348561	452.2781761635756	70.75004045653046	-217.75384207719537	224.39994315080293	145.78197818432042
3090	15.445	-156.68272244021435	549.908854856434	394.39852947753496	-331.0756472340886	452.817408192842	70.48506658713052	-217.87097950491466	224.7952775448664	144.73837640056774
3091	15.45	-156.7626778517813	549.8255419110548	394.3198623389355	-331.29528338658633	453.35480247047497	70.23295409589132	-217.99109842206633	225.19527924711775	143.71662348477807
3092	15.455	-156.84340477465227	549.7518590476109	394.24378017700786	-331.51880872770937	453.8905450151515	69.99353684122332	-218.1150336593887	225.5996210193376	142.7168187704096
3093	15.46	-156.92489947761342	549.6876929214443	394.1702717028308	-331.74631938596076	454.4248299617652	69.76662328769181	-218.24359392787005	226.0079849712052	141.73901798524133
3094	15.465	-157.0071623716644	549.6329250881727	394.09931841727297	-331.9778994428326	454.95785873042416	69.55199706196062	-218.37755952684276	226.42006333083214	140.783233728865
3095	15.47	-157.0901979863597	549.5874323018741	394.0308947160391	-332.21362064111236	455.48983916605357	69.34941759568835	-218.51768019431722	226.8355591401912	139.84943610945174
3096	15.475	-157.1740149304477	549.5510868170401	393.96496802031965	-332.45354214170015	456.0209846520361	69.15862085180154	-218.66467310411593	227.2541868740135	138.93755353392493
3097	15.48	-157.25862583709298	549.5237566933421	393.90149893225066	-332.6977103288526	456.5515132014107	68.97932013029089	-218.81922101376884	227.67567298115313	138.0474736450983
3098	15.485	-157.34404729402908	549.5053061022564	393.840441414286	-332.94615866364404	457.08164652923574	68.81120694941949	-218.9819705665301	228.09975634783717	137.17904439880627
3099	15.49	-157.43029975904702	549.4955956345921	393.781742991483	-333.19890758531005	457.61160910978003	68.65395199799698	-219.15353075027878	228.52618868263096	136.33207527356518
3100	15.495	-157.5174074612836	549.4944826079785	393.725344975616	-333.4559644600139	458.1416272222634	68.50720615415723	-219.33447151547387	228.9547348233521	135.50633860486198
3101	15.5	-157.60539828882509	549.5018213733675	393.67118270994433	-333.7173235764566	458.6719279888965	68.37060156588598	-219.52532255374507	229.38517296655718	134.70157103576756
3102	15.505	-157.6943036631952	549.5174636196251	393.6191858333871	-333.9829661876305	459.20273840899534	68.2437527883738	-219.72657223812513	229.81729482060666	133.91747507522442
3103	15.51	-157.78415840134198	549.5412586752926	393.56927856278793	-334.2528605978998	459.7342843929505	68.12625797312208	-219.93866672535708	230.25090568367676	133.15372075505388
3104	15.515	-157.87500056578412	549.5730538066184	393.5213799918895	-334.52696229447713	460.2667897998248	68.01770010360396	-220.1620092201531	230.68582444843662	132.40994737647486
3105	15.52	-157.9668713036164	549.6126945109771	393.47540440559146	-334.80521412224846	460.8004754823294	67.9176482721805	-220.3969594007356	231.1218835354411	131.68576533672044
3106	15.525	-158.0598146751129	549.660024804815	393.43126160801125	-335.08754650079317	461.33555834289444	67.82565899289168	-220.64383300445883	231.55892875760284	130.98075802618126
3107	15.53	-158.1538774726978	549.7148875052859	393.3888572628376	-335.3738776823302	461.87225040450016	67.74127754468564	-220.90290157179192	231.99681911840028	130.29448378639603
3108	15.535	-158.2491090310841	549.7771245047678	393.34809324443603	-335.66411404922206	462.41075789987076	67.66403933961504	-221.17439234644266	232.4354265467527	129.62647791914756
3109	15.54	-158.34556102940522	549.8465770374813	393.30886799814397	-335.9581504495605	462.9512803825572	67.59347131051732	-221.45848832891778	232.87463557174348	128.97625473690954
3110	15.545	-158.44328728618515	549.9230859374637	393.27107690818224	-336.2558705692598	463.4940098633451	67.52909331270659	-221.75532848034783	233.31434294060222	128.34330964492102
3111	15.55	-158.54234354801005	550.0064918871902	393.2346126716017	-336.5571473389881	464.0391299753207	67.47041953423668	-222.06500807295868	233.75445718356372	127.72712124524328
3112	15.555	-158.64278727277633	550.0966356561686	393.19936567669197	-336.8618433741732	464.58681517081004	67.41695990934826	-222.3875791831422	234.19489812940324	127.12715345327446
3113	15.56	-158.74467740839972	550.1933583288832	393.1652243842821	-337.16981144623406	465.13722995328203	67.36822152978843	-222.72305132267223	234.63559637560888	126.54285761736209
3114	15.565	-158.84807416787183	550.2965015214986	393.13207571038714	-337.48089498310515	465.69052814716076	67.3237100487848	-223.0713922032243	235.07649271728607	125.9736746323583
3115	15.57	-158.95303880155367	550.4059075867912	393.099805408672	-337.7949285970442	466.2468522083419	67.28293107257129	-223.43252862899413	235.51753753900144	125.41903703820611
3116	15.575	-159.05963336758933	550.5214198068151	393.0682984512404	-338.1117386376434	466.80633257804425	67.2453915344958	-223.8063475118659	235.9586901738618	124.87837109492702
3117	15.58	-159.1679205013165	550.6428825728734	393.0374394062871	-338.43114376789623	467.3690870824503	67.21060104689177	-224.19269700326316	236.3999182341876	124.35109882569637
3118	15.585	-159.27796318453878	550.7701415524075	393.0071128111995	-338.7529555611181	467.9352203804066	67.17807322606359	-224.59138773651804	236.84119691818103	123.83664002004286
3119	15.59	-159.38982451550854	550.9030438424834	392.9772035397375	-339.0769791164627	468.50482346125534	67.14732698592107	-225.0021941733233	237.28250829700767	123.33441418958843
3120	15.595	-159.50356748045138	551.0414381096061	392.9475971619752	-339.4030136907361	469.077973194667	67.11788779599777	-225.4248560475828	237.7238405867048	122.84384246915377
3121	15.6	-159.61925472743982	551.1851747156534	392.9181802957458	-339.73085334416976	469.65473193412714	67.08928889980207	-225.85907989975482	238.1651874093036	122.36434945648891
